# xmcd
#
# Track frame offsets:
#	150
#	17193
#	46963
#	73992
#	115538
#	141796
#	172621
#	209597
#	256493
#	281606
#	285575
#	303443
#
# Disc length: 4541 seconds
#
# Revision: 0
# Processed by: cddbd v1.5.2PL0 Copyright (c) Steve Scherf et al.
# Submitted via: audiograbber 1.82.01
#
DISCID=af11bb0c
DTITLE=Billy Goodman and Steve Kimock - 2008-05-28 Turning Point, Herrenwies C1
DYEAR=2008
DGENRE=Folk-Rock
TTITLE0=Instrumental Intro
TTITLE1=Central Florida
TTITLE2=When You Got A Good Friend
TTITLE3=Walk The Street Alone
TTITLE4=Johnny Anonymous
TTITLE5=Over And Over Again
TTITLE6=Little Red Rooster
TTITLE7=Independence Day
TTITLE8=Counting On You
TTITLE9=Happy Birthday To Hajo
TTITLE10=Evangeline
TTITLE11=Friend Of The Devil
EXTD=
EXTT0=
EXTT1=
EXTT2=
EXTT3=
EXTT4=
EXTT5=
EXTT6=
EXTT7=
EXTT8=
EXTT9=
EXTT10=
EXTT11=
PLAYORDER=
